<svg xmlns="http://www.w3.org/2000/svg" width="2015.1" height="729.663" viewBox="0 0 2015.1 729.663">
  <path id="Path_1" data-name="Path 1" d="M78,399.245s130.562,10.46,213.446,74.449S489.81,602.318,554.4,621.534c207.472,27.95,388.031-158.088,469.748-222.289s244.171-130.8,400.264-95.866S2025.3,680.5,2089.888,511.055c6.728-17.651-4.457,505.5,0,504.493,1.33-.312-1.389-1.86,0,0,.4.52-.524-1.2,0,0,2.3,5.242-1.094-12.678,0,0,1.124,13.02-1277.688,2.93-1277.688,2.93L78,1008.79Z" transform="translate(-77.5 -293.051)" fill="#cc4195" stroke="#cc4195" stroke-width="1"/>
</svg>
