<svg xmlns="http://www.w3.org/2000/svg" xmlns:xlink="http://www.w3.org/1999/xlink">
  <g id="Web_1920_1" data-name="Web 1920 – 1" clip-path="url(#clip-Web_1920_1)" style="    transform: translate(-67%,-59%);">
    <rect fill="#fff"/>
    <g id="Rectangle_1" data-name="Rectangle 1" transform="translate(989 448)" fill="#e9a4f1" stroke="#e9a4f1" stroke-width="1">
      <rect width="7" height="47" stroke="none"/>
      <rect x="0.5" y="0.5" width="6" height="46" fill="none"/>
    </g>
    <g id="Rectangle_2" data-name="Rectangle 2" transform="translate(1016.21 468.566) rotate(90)" fill="#e9a4f1" stroke="#e9a4f1" stroke-width="1">
      <rect width="5.577" height="46.71" stroke="none"/>
      <rect x="0.5" y="0.5" width="4.577" height="45.71" fill="none"/>
    </g>
    <g id="Rectangle_5" data-name="Rectangle 5" transform="translate(972 547)" fill="#e9a4f1" stroke="#e9a4f1" stroke-width="1">
      <rect width="7" height="47" stroke="none"/>
      <rect x="0.5" y="0.5" width="6" height="46" fill="none"/>
    </g>
    <g id="Rectangle_6" data-name="Rectangle 6" transform="translate(999.21 567.566) rotate(90)" fill="#e9a4f1" stroke="#e9a4f1" stroke-width="1">
      <rect width="5.577" height="46.71" stroke="none"/>
      <rect x="0.5" y="0.5" width="4.577" height="45.71" fill="none"/>
    </g>
    <g id="Ellipse_2" data-name="Ellipse 2" transform="translate(900 590)" fill="#e9a4f1" stroke="#e9a4f1" stroke-width="1">
      <circle cx="24.5" cy="24.5" r="24.5" stroke="none"/>
      <circle cx="24.5" cy="24.5" r="24" fill="none"/>
    </g>
    <g id="Rectangle_7" data-name="Rectangle 7" transform="translate(923 590)" fill="#fff" stroke="#fff" stroke-width="1">
      <rect width="4" height="49" stroke="none"/>
      <rect x="0.5" y="0.5" width="3" height="48" fill="none"/>
    </g>
    <g id="Rectangle_8" data-name="Rectangle 8" transform="translate(949 613) rotate(90)" fill="#fff" stroke="#fff" stroke-width="1">
      <rect width="4" height="49" stroke="none"/>
      <rect x="0.5" y="0.5" width="3" height="48" fill="none"/>
    </g>
    <g id="Ellipse_3" data-name="Ellipse 3" transform="translate(920 495)" fill="#e9a4f1" stroke="#e9a4f1" stroke-width="1">
      <circle cx="24.5" cy="24.5" r="24.5" stroke="none"/>
      <circle cx="24.5" cy="24.5" r="24" fill="none"/>
    </g>
    <g id="Rectangle_9" data-name="Rectangle 9" transform="translate(943 495)" fill="#fff" stroke="#fff" stroke-width="1">
      <rect width="4" height="49" stroke="none"/>
      <rect x="0.5" y="0.5" width="3" height="48" fill="none"/>
    </g>
    <g id="Rectangle_10" data-name="Rectangle 10" transform="translate(969 518) rotate(90)" fill="#fff" stroke="#fff" stroke-width="1">
      <rect width="4" height="49" stroke="none"/>
      <rect x="0.5" y="0.5" width="3" height="48" fill="none"/>
    </g>
  </g>
</svg>